<svg xmlns="http://www.w3.org/2000/svg" version="1.1" xmlns:xlink="http://www.w3.org/1999/xlink" xmlns:svgjs="http://svgjs.dev/svgjs" width="1000" height="1125" viewBox="0 0 1000 1125"><g transform="matrix(1,0,0,1,0,0)"><svg viewBox="0 0 320 360" data-background-color="#ffffff" preserveAspectRatio="xMidYMid meet" height="1125" width="1000" xmlns="http://www.w3.org/2000/svg" xmlns:xlink="http://www.w3.org/1999/xlink"><g id="tight-bounds" transform="matrix(1,0,0,1,0,0)"><svg viewBox="0 0 320 360" height="360" width="320"><g><svg></svg></g><g><svg viewBox="0 0 320 360" height="360" width="320"><g><path xmlns="http://www.w3.org/2000/svg" d="M219.58 41.008c0.707 0 6.365 2.829 9.547 3.89-1.061 0.354-3.536-0.707-6.365-1.768 0.707 0 2.122 0.354 3.536 1.06-0.707-0.707-6.011-2.475-6.718-3.182M166.895 30.047c1.061-0.354 13.436 1.414 19.094 1.768 0.354-0.354-0.707-0.354-2.122-0.707 1.768-0.354 5.304 0.707 7.779 1.06-7.425 0.354-15.558-1.768-22.629-1.06-2.475 0-0.707-0.707-2.122-1.061M156.641 30.047c6.365 0 11.315 0 2.121 0.707-1.061-0.354-2.475-0.354-2.121-0.707M256.707 59.395c0.707 0 3.536 3.182 4.95 4.243-0.354 0.354-3.182-2.475-4.596-3.536 0.354 0.354 0 0-0.354-0.707M249.635 54.798c-2.829-2.475-3.889-2.475-4.243-3.889 2.475 1.414 4.243 2.829 4.243 3.889M204.022 32.522c0.354-0.354 1.061 0.354 2.829 0.707-2.122-0.354-1.768 0-1.061 0.707-2.475-0.354-3.182-0.707-2.475-1.414 1.414 0.707 1.768 0.354 0.707 0M103.602 36.765c0-0.354 1.414-1.061 2.475-1.414-1.061 0.707-0.707 1.061 1.061 0.353 0 0.354-2.122 1.061-3.536 1.768 0.707-0.354 1.414-1.414 0-0.707M211.094 28.986c-1.061 0.354-4.95-1.768-8.84-2.475-2.122-0.707 8.486 1.768 8.84 2.475M2.475 203.66c2.122 8.84 0.707 8.486 0 0M2.829 150.621c0.354-1.414 0.707-5.304 1.06-4.95-1.061 8.486-2.829 12.376-3.182 18.74 1.061-5.657-0.354 3.182-0.707 5.304 0.354 2.829 0.354-1.768 1.061-1.06 0.707 1.061-1.414 15.912-0.707 7.779-0.707 7.425 0 15.558 1.414 17.679-1.768 11.315 7.072 36.773 8.84 42.077 0.354 0.354 0-1.768 0.707-0.353 0.707 4.597 3.889 7.779 4.95 12.729 1.061 1.414 5.304 9.193 6.011 10.962 1.414 2.829 2.122 2.475 3.536 5.303 4.243 8.133 10.961 15.912 17.326 23.337 20.508 24.044 51.978 43.845 86.984 50.918 35.006 7.425 71.779 2.122 100.419-11.669 1.768-1.061 1.414-1.414 3.536-2.122 9.901-3.182 21.923-13.436 28.641-17.326 3.182-3.536 11.669-9.547 12.73-13.082 6.011-4.95 12.022-13.083 15.204-18.387 1.768-2.829 3.182-2.829 3.889-4.597-0.354 0 5.657-7.425 7.426-11.668-0.707 0-1.768 2.122-1.768 0 12.729-24.398 19.801-57.282 15.911-79.912 0.707 27.934-6.365 59.05-19.801 78.851-6.011 12.729-18.387 26.519-29.701 36.42-1.768 1.768-3.536 3.889-5.658 5.304-6.718 5.657-14.144 10.254-21.922 14.497-18.387 10.254-38.895 19.094-62.94 19.447 41.37-3.536 78.497-24.398 99.006-49.856-15.558 15.204-22.276 21.215-39.602 30.055-1.414 2.475-13.083 7.425-20.862 9.547 4.597-2.122 14.144-5.657 17.326-8.486-25.812 12.376-54.453 19.448-81.326 15.558 10.254 0 24.751 0.354 38.541-2.121 2.122-0.707 3.182-1.414 5.658-1.768 26.873-6.011 52.685-19.094 71.072-37.481-10.608 9.547-26.519 20.862-36.774 24.398 9.547-5.304 26.873-15.558 32.53-23.337-11.315 11.315-32.53 22.63-45.966 27.58-2.122 0.354 1.414-1.414-2.122 0-4.243 1.061-2.475 1.061-3.536 1.768-16.265 4.597-35.006 8.486-50.563 7.072-2.829-0.354-3.889-1.061-6.365-1.061-2.829-0.354-5.304-0.354-8.486-0.354-12.376-1.414-25.812-6.365-35.713-10.607-5.304-2.475-10.608-4.243-15.912-7.426-4.243-2.475-7.779-5.304-11.314-8.132-13.436-9.901-24.751-19.801-35.36-33.945-19.094-26.519-28.994-59.757-27.58-92.641 1.414-32.884 14.497-65.061 35.359-88.752-1.061 1.061 1.414-2.475 3.536-4.596 0 0.707-0.354 1.768 2.122-0.707 2.122-2.475-0.707-0.707 0.353-2.122 21.923-24.044 60.111-43.492 99.36-44.199 1.414-1.061 3.889-2.475 6.718-1.768 0 0.354-1.768 0.354-1.768 0.354 3.889-0.354 7.425-0.354 9.193 0.353 0.354-0.354-1.414-0.707 0-0.707 2.475 0.707 3.182 0 4.597 0.707-1.061 0-2.122 0-2.829 0.354 8.84 0 14.497 2.122 23.337 2.829-4.597-1.061-5.657-1.061-9.193-2.122 3.889 0.707 5.657 1.414 7.425 1.061-0.707 0-0.354-1.061 0.354-0.707 7.072 1.768 7.779 2.475 15.204 4.95 0.707-0.707-3.182-1.061-4.243-2.122 7.072 2.475 13.436 4.243 17.68 7.072-1.414-1.061-5.657-2.475-8.84-3.889-0.354 0.354 1.061 0.707 1.414 1.414-3.536-1.768-8.486-3.536-13.436-4.243 4.243 1.061 7.072 2.475 8.84 3.182-3.889-0.707-8.84-3.182-14.498-4.243 9.193 2.829 26.519 9.193 37.127 14.851-3.889-2.475-8.486-4.243-10.961-5.657 2.122 0.354 4.597 1.768 4.597 1.06 2.475 1.061 5.657 3.536 7.425 3.89-3.182-2.122-9.547-5.304-11.668-6.365 26.519 12.022 50.21 32.177 65.414 57.989 1.414 2.475 3.536 8.133 5.304 8.84-0.354-1.768-1.768-2.829-3.182-5.657 0.707 0 0.707-1.061 0-2.122-1.414-1.768 0 1.414-1.415-0.354-6.365-11.669-14.144-21.923-26.165-33.237 6.718 6.365 1.768 1.768 0.353-0.354 9.193 8.133 19.801 21.923 24.398 28.995-0.707-1.061-1.061-1.768-0.707-1.768 8.486 14.497 13.79 27.58 19.094 46.32 0.354 0.354 0-1.414 0.707-0.353 3.536 14.851 4.597 27.227 4.243 38.541 2.829-19.094-3.536-48.796-14.851-72.133-1.414-2.829-1.414-0.707-2.829-3.889 0-1.061-1.061-3.182-1.768-4.597-14.144-23.337-31.47-39.956-51.978-53.038 1.414 0.707 4.243 2.829 4.244 2.475-38.188-25.105-82.387-28.641-118.807-20.862-2.475 1.061-3.536 2.122-6.365 3.536 5.304-1.768 8.486-2.122 13.437-3.183 1.061-1.061-4.597 0.354-2.122-0.707 0.354 0.354 4.95-0.707 6.011-0.353 0 0.354-1.414 0.707-1.768 1.06 11.669-2.475 23.691-2.829 33.945-2.121-6.011 0.354-16.972-0.707-20.508 1.061 3.536-0.354 8.486-0.707 11.668-0.354-4.243 0-12.022 0.354-15.558 0.707-0.354-0.354 5.657-1.061 1.768-1.06-1.768 0.354-4.597 0.354-5.657 1.414-30.409 2.829-60.111 18.74-80.973 37.481-4.243 3.536-9.193 7.425-12.375 11.314-7.779 8.84-12.729 17.68-18.387 25.459 3.536-7.425 11.315-18.74 20.508-28.287 9.193-9.547 19.094-17.68 24.398-21.923 0 1.414 8.486-5.304 11.669-7.425-2.122 1.768 1.414-0.707 2.121-0.354 11.315-6.718 20.508-9.193 30.763-13.083-2.475 0.707-4.597 1.414-4.951 1.061 2.475-0.707 3.889-1.414 3.536-1.768-9.901 2.829-25.459 9.547-37.834 16.972 22.276-15.204 50.564-24.398 78.497-24.751 27.934-0.707 55.16 6.365 76.729 17.68 14.497 6.365 28.287 18.033 39.249 29.348 3.182 2.829 0.707-0.707 5.304 4.243-1.414-0.707-2.475-1.414-0.707 0.707 2.829 3.182-0.707-2.475 3.889 3.182-0.354 0-1.768-1.768-1.768-1.061 12.376 10.961 21.923 30.762 27.58 43.846-1.414-5.304-4.95-12.729-7.779-18.033 8.486 15.558 11.315 24.751 14.851 38.541 1.414 1.061-0.707-4.95 0.707-2.121 0.354 2.122 0.707 8.84 2.122 9.9-1.061-6.718-2.829-14.851-4.243-16.265 1.061 0.707-1.768-8.133-3.536-10.254-0.707-5.657-5.657-15.558-9.901-22.984-15.204-29.702-42.431-54.099-72.839-67.536 0-0.707-1.768-1.414-2.476-2.121-30.055-12.729-66.122-16.265-100.773-8.133-35.006 8.486-67.889 28.641-91.227 57.636 1.061-3.536 9.901-10.254 10.255-13.083-10.254 10.961-21.215 25.459-28.641 41.016-7.779 15.558-12.022 31.47-13.79 43.138" fill="#233565" fill-rule="nonzero" stroke="none" stroke-width="1" stroke-linecap="butt" stroke-linejoin="miter" stroke-miterlimit="10" stroke-dasharray="" stroke-dashoffset="0" font-family="none" font-weight="none" font-size="none" text-anchor="none" style="mix-blend-mode: normal" data-fill-palette-color="tertiary"></path></g><g transform="matrix(1,0,0,1,48,124.8122164966504)"><svg viewBox="0 0 224 110.3755670066992" height="110.3755670066992" width="224"><g><svg viewBox="0 0 224 110.3755670066992" height="110.3755670066992" width="224"><g><svg viewBox="0 0 224.00000000000003 110.37556700669921" height="110.3755670066992" width="224"><g transform="matrix(1,0,0,1,0,75.88673864897564)"><svg viewBox="0 0 224.00000000000003 34.488828357723584" height="34.488828357723584" width="224.00000000000003"><g id="textblocktransform"><svg viewBox="0 0 224.00000000000003 34.488828357723584" height="34.488828357723584" width="224.00000000000003" id="textblock"><g><svg viewBox="0 0 224.00000000000003 18.601626016260166" height="18.601626016260166" width="224.00000000000003"><g transform="matrix(1,0,0,1,0,0)"><svg width="224.00000000000003" viewBox="-0.550000011920929 -35.75 430.4700012207031 35.75" height="18.601626016260166" data-palette-color="#233565"><g class="wordmark-text-0" data-fill-palette-color="primary" id="text-0"><path d="M35.6 0L35.6-22 26.15-2.9 21.5-2.9 12.1-22 12.1 0-0.55 0-0.55-2.15 4.3-2.15 4.3-34.95 14.85-34.95 23.85-15.75 32.9-34.95 43.4-34.95 43.4-2.15 48.25-2.15 48.25 0 35.6 0ZM84.25-2.15L90.05-2.15 90.05 0 76.9 0 73.65-7.55 59-7.55 55.75 0 42.6 0 42.6-2.15 48.35-2.15 62.55-34.95 70.1-34.95 84.25-2.15ZM70.7-14.4L66.35-24.55 61.95-14.4 70.7-14.4ZM104.05-2.15L115.35-2.15 115.35 0 84.95 0 84.95-2.15 96.25-2.15 96.25-28.2 86.35-28.2 86.35-34.95 113.95-34.95 113.95-28.2 104.05-28.2 104.05-2.15ZM134.44-2.15L145.74-2.15 145.74 0 115.34 0 115.34-2.15 126.64-2.15 126.64-28.2 116.74-28.2 116.74-34.95 144.34-34.95 144.34-28.2 134.44-28.2 134.44-2.15ZM145.19-2.15L150.04-2.15 150.04-34.95 175.24-34.95 175.24-28 157.84-28 157.84-20.8 173.49-20.8 173.49-14.15 157.84-14.15 157.84-6.9 175.79-6.9 175.79-2.15 180.64-2.15 180.64 0 145.19 0 145.19-2.15ZM205.74-2.15L217.54-2.15 217.54 0 177.89 0 177.89-2.15 182.74-2.15 182.74-34.95 195.09-34.95Q204.44-34.95 209.44-30.38 214.44-25.8 214.44-17.5L214.44-17.5Q214.44-6.3 205.74-2.15L205.74-2.15ZM195.49-6.9Q200.84-6.9 203.71-9.6 206.59-12.3 206.59-17.45 206.59-22.6 203.71-25.38 200.84-28.15 194.89-28.15L194.89-28.15 190.54-28.15 190.54-6.9 195.49-6.9ZM229.63-2.15L233.94-2.15 233.94 0 217.53 0 217.53-2.15 221.84-2.15 221.84-34.95 229.63-34.95 229.63-2.15ZM273.58-2.15L284.88-2.15 284.88 0 267.03 0 259.38-24.3 251.78 0 233.93 0 233.93-2.15 245.23-2.15 233.78-34.95 242.23-34.95 249.13-14.85 255.33-34.95 263.48-34.95 269.63-14.85 276.58-34.95 285.03-34.95 273.58-2.15ZM315.03-2.15L326.18-2.15 326.18 0 284.88 0 284.88-2.15 296.03-2.15Q291.93-4.5 289.56-8.6 287.18-12.7 287.18-17.7L287.18-17.7Q287.18-25.4 292.48-30.58 297.78-35.75 305.53-35.75 313.28-35.75 318.58-30.58 323.88-25.4 323.88-17.7L323.88-17.7Q323.88-12.7 321.48-8.6 319.08-4.5 315.03-2.15L315.03-2.15ZM315.93-17.68Q315.93-22.35 312.93-25.65 309.93-28.95 305.56-28.95 301.18-28.95 298.18-25.65 295.18-22.35 295.18-17.68 295.18-13 298.18-9.73 301.18-6.45 305.56-6.45 309.93-6.45 312.93-9.73 315.93-13 315.93-17.68ZM325.63-2.15L330.48-2.15 330.48-34.95 343.73-34.95Q351.88-34.95 355.35-32.2 358.83-29.45 358.83-23.35L358.83-23.35Q358.83-14.95 352.18-12.5L352.18-12.5 359.48-2.15 364.18-2.15 364.18 0 351.43 0 343.68-11.15 338.28-11.15 338.28 0 325.63 0 325.63-2.15ZM343.98-17.9Q347.98-17.9 349.43-19.2 350.88-20.5 350.88-23.33 350.88-26.15 349.38-27.2 347.88-28.25 344.13-28.25L344.13-28.25 338.28-28.25 338.28-17.9 343.98-17.9ZM397.48-34.95L383.58-19.5 395.93-2.15 400.08-2.15 400.08 0 388.38 0 378.13-13.8 374.63-9.9 374.63 0 362.53 0 362.53-2.15 366.83-2.15 366.83-34.95 374.63-34.95 374.63-20.6 387.83-34.95 397.48-34.95ZM423.52-2.15L429.92-2.15 429.92 0 398.02 0 398.02-2.15 404.82-2.15Q402.07-3.55 399.82-5.75L399.82-5.75 404.47-11.45Q410.12-6.5 414.92-6.5L414.92-6.5Q417.07-6.5 418.3-7.43 419.52-8.35 419.52-9.93 419.52-11.5 418.22-12.43 416.92-13.35 413.07-14.3L413.07-14.3Q406.97-15.75 404.15-18.07 401.32-20.4 401.32-25.38 401.32-30.35 404.9-33.05 408.47-35.75 413.82-35.75L413.82-35.75Q417.32-35.75 420.82-34.55 424.32-33.35 426.92-31.15L426.92-31.15 422.97-25.45Q418.42-28.9 413.57-28.9L413.57-28.9Q411.62-28.9 410.5-27.98 409.37-27.05 409.37-25.53 409.37-24 410.75-23.1 412.12-22.2 417.1-20.98 422.07-19.75 424.82-17.3 427.57-14.85 427.57-10.5L427.57-10.5Q427.57-5.1 423.52-2.15L423.52-2.15Z" fill="#233565" data-fill-palette-color="primary"></path></g></svg></g></svg></g><g transform="matrix(1,0,0,1,0,22.9930234796748)"><svg viewBox="0 0 224.00000000000003 11.495804878048782" height="11.495804878048782" width="224.00000000000003"><g transform="matrix(1,0,0,1,0,0)"><svg width="224.00000000000003" viewBox="1.600000023841858 -38.70000076293945 953.8099975585938 48.95000076293945" height="11.495804878048782" data-palette-color="#233565"><path d="M6.35 0L1.6 0 17.4-37.65 17.7-37.65 33.45 0 27.9 0 16.1-30.05 19.55-32.3 6.35 0ZM9.45-9.5L10.85-13.7 24.3-13.7 25.9-9.5 9.45-9.5ZM72.57 0L72.57-38.7 77.22-38.7 77.22 0 72.57 0ZM127.98-20.7L131.98-20.7 138.08-6.75 137.18-6.65 142.88-20.7 147.43-20.7 137.93 1.25 131.28-12.95 125.23 1.25 115.63-20.7 120.18-20.7 126.63-6.1 125.03-6.4 129.63-17.1 127.98-20.7ZM193.85 0.5L193.85 0.5Q190.95 0.5 188.57-0.75 186.2-2 184.82-4.42 183.45-6.85 183.45-10.35L183.45-10.35Q183.45-13.8 184.9-16.32 186.35-18.85 188.77-20.2 191.2-21.55 194.1-21.55L194.1-21.55Q197-21.55 199-20.23 201-18.9 202.05-17.1L202.05-17.1 201.75-16.3 202.2-20.7 206.5-20.7 206.5 0 201.85 0 201.85-5.4 202.35-4.2Q202.15-3.7 201.47-2.93 200.8-2.15 199.67-1.35 198.55-0.55 197.1-0.03 195.65 0.5 193.85 0.5ZM195.1-3.35L195.1-3.35Q196.85-3.35 198.25-4 199.65-4.65 200.57-5.83 201.5-7 201.85-8.65L201.85-8.65 201.85-12.7Q201.45-14.2 200.45-15.33 199.45-16.45 198.05-17.07 196.65-17.7 194.95-17.7L194.95-17.7Q193.1-17.7 191.55-16.8 190-15.9 189.07-14.3 188.15-12.7 188.15-10.55L188.15-10.55Q188.15-8.55 189.1-6.9 190.05-5.25 191.65-4.3 193.25-3.35 195.1-3.35ZM254.36 9.95L249.76 9.95 263.41-20.7 267.71-20.7 254.36 9.95ZM258.51-2.2L254.86 0.15 244.91-20.7 250.16-20.7 258.51-2.2ZM311.98 0.4L311.98 0.4Q309.78 0.4 307.71-0.38 305.63-1.15 304.28-2.7L304.28-2.7 306.23-5.4Q307.53-4.15 308.91-3.53 310.28-2.9 311.63-2.9L311.63-2.9Q312.63-2.9 313.48-3.15 314.33-3.4 314.86-3.98 315.38-4.55 315.38-5.55L315.38-5.55Q315.38-6.65 314.66-7.3 313.93-7.95 312.81-8.35 311.68-8.75 310.43-9.1L310.43-9.1Q307.88-9.95 306.53-11.45 305.18-12.95 305.18-15.1L305.18-15.1Q305.18-16.75 306.01-18.18 306.83-19.6 308.46-20.5 310.08-21.4 312.48-21.4L312.48-21.4Q314.63-21.4 316.33-20.88 318.03-20.35 319.53-19.15L319.53-19.15 317.68-16.25Q316.78-17.2 315.53-17.65 314.28-18.1 313.28-18.15L313.28-18.15Q312.43-18.2 311.66-17.9 310.88-17.6 310.38-17.05 309.88-16.5 309.88-15.75L309.88-15.75Q309.88-14.7 310.58-14.05 311.28-13.4 312.41-13.03 313.53-12.65 314.63-12.25L314.63-12.25Q316.18-11.8 317.38-11.05 318.58-10.3 319.31-9.2 320.03-8.1 320.03-6.45L320.03-6.45Q320.03-4.6 319.16-3.03 318.28-1.45 316.51-0.53 314.73 0.4 311.98 0.4ZM422.01 0L410.41 0 410.41-36.15 420.26-36.15Q425.61-36.15 429.39-34.5 433.16-32.85 435.46-30.15 437.76-27.45 438.84-24.18 439.91-20.9 439.91-17.65L439.91-17.65Q439.91-13.55 438.49-10.3 437.06-7.05 434.56-4.75 432.06-2.45 428.84-1.23 425.61 0 422.01 0L422.01 0ZM415.26-31.5L415.26-4.65 421.06-4.65Q424.06-4.65 426.59-5.55 429.11-6.45 430.99-8.15 432.86-9.85 433.91-12.33 434.96-14.8 434.96-17.95L434.96-17.95Q434.96-21.3 433.86-23.83 432.76-26.35 430.86-28.05 428.96-29.75 426.56-30.63 424.16-31.5 421.51-31.5L421.51-31.5 415.26-31.5ZM489.98 0.5L489.98 0.5Q486.43 0.5 483.88-0.93 481.33-2.35 479.95-4.83 478.58-7.3 478.58-10.5L478.58-10.5Q478.58-13.55 480.13-16.05 481.68-18.55 484.28-20.05 486.88-21.55 490.08-21.55L490.08-21.55Q494.18-21.55 496.88-19.15 499.58-16.75 500.53-12.55L500.53-12.55 483.48-6.55 482.38-9.3 496.38-14.4 495.38-13.75Q494.78-15.4 493.38-16.63 491.98-17.85 489.73-17.85L489.73-17.85Q487.83-17.85 486.33-16.93 484.83-16 483.98-14.4 483.13-12.8 483.13-10.75L483.13-10.75Q483.13-8.6 484.03-6.98 484.93-5.35 486.5-4.42 488.08-3.5 490.08-3.5L490.08-3.5Q491.43-3.5 492.7-4 493.98-4.5 495.08-5.3L495.08-5.3 497.23-1.85Q495.68-0.8 493.75-0.15 491.83 0.5 489.98 0.5ZM547.8 0.6L547.55 0.6 536.05-20.7 541.55-20.7 549.35-4.25 546.5-4.35 553.65-20.7 558.85-20.7 547.8 0.6ZM606.41 0.5L606.41 0.5Q602.86 0.5 600.31-0.93 597.76-2.35 596.39-4.83 595.01-7.3 595.01-10.5L595.01-10.5Q595.01-13.55 596.56-16.05 598.11-18.55 600.71-20.05 603.31-21.55 606.51-21.55L606.51-21.55Q610.61-21.55 613.31-19.15 616.01-16.75 616.96-12.55L616.96-12.55 599.91-6.55 598.81-9.3 612.81-14.4 611.81-13.75Q611.21-15.4 609.81-16.63 608.41-17.85 606.16-17.85L606.16-17.85Q604.26-17.85 602.76-16.93 601.26-16 600.41-14.4 599.56-12.8 599.56-10.75L599.56-10.75Q599.56-8.6 600.46-6.98 601.36-5.35 602.94-4.42 604.51-3.5 606.51-3.5L606.51-3.5Q607.86-3.5 609.14-4 610.41-4.5 611.51-5.3L611.51-5.3 613.66-1.85Q612.11-0.8 610.19-0.15 608.26 0.5 606.41 0.5ZM656.28 0L656.28-38.7 660.93-38.7 660.93 0 656.28 0ZM700.64-10.55L700.64-10.55Q700.64-13.65 702.12-16.15 703.59-18.65 706.19-20.1 708.79-21.55 712.09-21.55L712.09-21.55Q715.49-21.55 718.04-20.1 720.59-18.65 721.99-16.15 723.39-13.65 723.39-10.55L723.39-10.55Q723.39-7.45 721.99-4.93 720.59-2.4 718.02-0.95 715.44 0.5 712.04 0.5L712.04 0.5Q708.74 0.5 706.17-0.88 703.59-2.25 702.12-4.73 700.64-7.2 700.64-10.55ZM705.29-10.5L705.29-10.5Q705.29-8.5 706.19-6.88 707.09-5.25 708.62-4.3 710.14-3.35 711.99-3.35L711.99-3.35Q713.94-3.35 715.47-4.3 716.99-5.25 717.84-6.88 718.69-8.5 718.69-10.5L718.69-10.5Q718.69-12.5 717.84-14.13 716.99-15.75 715.47-16.73 713.94-17.7 711.99-17.7L711.99-17.7Q710.09-17.7 708.57-16.7 707.04-15.7 706.17-14.08 705.29-12.45 705.29-10.5ZM775.36 0.5L775.36 0.5Q773.01 0.5 770.84-0.6 768.66-1.7 767.46-3.55L767.46-3.55 767.76-5 767.76 9.95 763.16 9.95 763.16-21 767.16-21 767.81-15.7 767.31-17.15Q768.81-19.05 771.11-20.3 773.41-21.55 776.26-21.55L776.26-21.55Q779.16-21.55 781.49-20.15 783.81-18.75 785.16-16.25 786.51-13.75 786.51-10.4L786.51-10.4Q786.51-7.05 785.06-4.6 783.61-2.15 781.09-0.83 778.56 0.5 775.36 0.5ZM774.46-3.2L774.46-3.2Q776.46-3.2 778.14-4.13 779.81-5.05 780.81-6.68 781.81-8.3 781.81-10.35L781.81-10.35Q781.81-12.45 780.86-14.08 779.91-15.7 778.34-16.65 776.76-17.6 774.81-17.6L774.81-17.6Q773.01-17.6 771.56-16.9 770.11-16.2 769.16-14.98 768.21-13.75 767.81-12.15L767.81-12.15 767.81-8.7Q768.06-7.1 769.01-5.85 769.96-4.6 771.39-3.9 772.81-3.2 774.46-3.2ZM826.28 0L826.28-20.7 830.93-20.7 830.93 0 826.28 0ZM825.93-28.2L825.93-28.2Q825.93-29.3 826.8-30.05 827.68-30.8 828.73-30.8L828.73-30.8Q829.78-30.8 830.6-30.05 831.43-29.3 831.43-28.2L831.43-28.2Q831.43-27.05 830.6-26.33 829.78-25.6 828.73-25.6L828.73-25.6Q827.68-25.6 826.8-26.35 825.93-27.1 825.93-28.2ZM872.44-20.7L876.59-20.7 876.99-15.65 876.79-16.45Q877.79-18.75 880.04-20.13 882.29-21.5 885.24-21.5L885.24-21.5Q888.19-21.5 890.07-19.78 891.94-18.05 891.99-15.3L891.99-15.3 891.99 0 887.29 0 887.29-13.65Q887.24-15.35 886.32-16.43 885.39-17.5 883.44-17.5L883.44-17.5Q881.64-17.5 880.19-16.5 878.74-15.5 877.92-13.75 877.09-12 877.09-9.7L877.09-9.7 877.09 0 872.44 0 872.44-20.7ZM943.51 10.25L943.51 10.25Q941.21 10.25 939.46 9.73 937.71 9.2 936.28 8.25 934.86 7.3 933.56 6.1L933.56 6.1 936.26 2.95Q937.91 4.5 939.61 5.35 941.31 6.2 943.41 6.2L943.41 6.2Q945.76 6.2 947.38 5.43 949.01 4.65 949.86 3.28 950.71 1.9 950.71 0.1L950.71 0.1 950.76-5.5 951.16-4.6Q950.26-2.45 947.91-0.98 945.56 0.5 942.21 0.5L942.21 0.5Q939.36 0.5 936.98-0.95 934.61-2.4 933.18-4.88 931.76-7.35 931.76-10.45L931.76-10.45Q931.76-13.7 933.26-16.18 934.76-18.65 937.21-20.1 939.66-21.55 942.56-21.55L942.56-21.55Q945.31-21.55 947.58-20.43 949.86-19.3 950.91-17.55L950.91-17.55 950.66-16.7 951.16-20.7 955.41-20.7 955.41 0.15Q955.41 2.95 953.96 5.25 952.51 7.55 949.86 8.9 947.21 10.25 943.51 10.25ZM936.41-10.55L936.41-10.55Q936.41-8.55 937.36-6.9 938.31-5.25 939.93-4.3 941.56-3.35 943.56-3.35L943.56-3.35Q945.41-3.35 946.88-4.03 948.36-4.7 949.36-5.88 950.36-7.05 950.76-8.6L950.76-8.6 950.76-12.7Q950.31-14.2 949.26-15.33 948.21-16.45 946.76-17.07 945.31-17.7 943.56-17.7L943.56-17.7Q941.56-17.7 939.93-16.8 938.31-15.9 937.36-14.28 936.41-12.65 936.41-10.55Z" opacity="1" transform="matrix(1,0,0,1,0,0)" fill="#233565" class="slogan-text-1" data-fill-palette-color="secondary" id="text-1"></path></svg></g></svg></g></svg></g></svg></g><g transform="matrix(1,0,0,1,82.65958710763908,0)"><svg viewBox="0 0 58.68082578472187 71.495341185561" height="71.495341185561" width="58.68082578472187"><g><svg xmlns:dc="http://purl.org/dc/elements/1.1/" xmlns:cc="http://creativecommons.org/ns#" xmlns:rdf="http://www.w3.org/1999/02/22-rdf-syntax-ns#" xmlns:svg="http://www.w3.org/2000/svg" xmlns="http://www.w3.org/2000/svg" version="1.1" viewBox="13.06560230255127 5 73.86878967285156 90" xml:space="preserve" x="0" y="0" height="71.495341185561" width="58.68082578472187" class="icon-icon-0" data-fill-palette-color="accent" id="icon-0"><path d="M40.25 5c-0.391 0-0.77 0.077-1.125 0.219l-7.406 3.062c-1.456 0.604-2.135 2.294-1.532 3.75l1.844 4.407c-2.913 2.043-5.44 4.569-7.5 7.5l-4.437-1.844c-0.71-0.284-1.477-0.284-2.188 0-0.71 0.284-1.229 0.852-1.531 1.562l-3.094 7.375c-0.604 1.456 0.106 3.146 1.563 3.75L19.25 36.625c-0.604 3.517-0.604 7.077 0 10.594l-4.406 1.844c-1.456 0.604-2.166 2.262-1.563 3.718L16.375 60.188c0.284 0.71 0.821 1.247 1.531 1.531 0.693 0.302 1.477 0.302 2.188 0L24.5 59.906c2.06 2.913 4.601 5.44 7.531 7.5L30.188 71.813c-0.604 1.456 0.075 3.146 1.531 3.749L39.125 78.625c0.71 0.284 1.477 0.284 2.188 0 0.71-0.284 1.261-0.821 1.562-1.531l1.812-4.438c0.249 0.053 0.501 0.089 0.75 0.125l0-1.219c-0.355-0.071-0.556-0.13-1-0.218l-0.5-0.094-2.218 5.344c-0.16 0.391-0.484 0.715-0.875 0.875-0.409 0.16-0.841 0.16-1.25 0l-7.407-3.063c-0.817-0.337-1.212-1.259-0.875-2.094l2.219-5.343-0.406-0.313c-3.126-2.131-5.793-4.767-7.906-7.875l-0.282-0.437-5.343 2.218c-0.409 0.16-0.859 0.16-1.25 0C17.953 60.403 17.66 60.127 17.5 59.719L14.406 52.313c-0.355-0.817 0.058-1.788 0.875-2.126l5.344-2.218-0.094-0.5c-0.71-3.677-0.71-7.413 0-11.125l0.094-0.5L15.281 33.625C14.464 33.288 14.069 32.335 14.406 31.5L17.5 24.125c0.337-0.817 1.277-1.212 2.094-0.875l5.344 2.219 0.281-0.438c2.131-3.126 4.798-5.761 7.906-7.875L33.531 16.875 31.313 11.531c-0.355-0.817 0.058-1.788 0.875-2.125l7.406-3.062c0.213-0.089 0.443-0.125 0.656-0.125 0.639 0 1.22 0.365 1.469 0.968l2.219 5.375 0.5-0.093c3.677-0.71 7.413-0.71 11.125 0l0.5 0.093 2.218-5.375c0.337-0.817 1.29-1.181 2.125-0.843l7.375 3.031c0.817 0.337 1.212 1.29 0.875 2.125L66.438 16.844 66.875 17.125c3.108 2.114 5.761 4.767 7.875 7.875l0.281 0.438 5.344-2.219c0.409-0.16 0.859-0.16 1.25 0 0.391 0.16 0.715 0.466 0.875 0.875l3.094 7.375c0.355 0.817-0.058 1.788-0.875 2.125l-5.344 2.218 0.094 0.5c0.71 3.694 0.71 7.431 0 11.125l-0.094 0.5 5.344 2.219c0.817 0.337 1.212 1.29 0.875 2.125L82.5 59.656c-0.16 0.391-0.453 0.715-0.844 0.875-0.409 0.16-0.841 0.16-1.25 0L75.063 58.313 74.781 58.75c-2.131 3.126-4.798 5.761-7.906 7.875l-0.406 0.281 2.218 5.375c0.16 0.409 0.16 0.859 0 1.25-0.16 0.391-0.466 0.715-0.875 0.875l-7.406 3.063c-0.817 0.337-1.756-0.04-2.094-0.875L56.094 71.25l-0.5 0.063c-0.533 0.107-0.891 0.21-1.407 0.281l-0.031 1.218c0.373-0.053 0.765-0.116 1.156-0.187l1.813 4.438c0.284 0.693 0.852 1.229 1.562 1.531 0.355 0.142 0.721 0.219 1.094 0.219 0.373 0 0.739-0.077 1.094-0.219l7.406-3.063C68.992 75.247 69.528 74.71 69.813 74c0.302-0.693 0.302-1.477-0.001-2.188L67.969 67.375c2.913-2.06 5.44-4.569 7.5-7.5l4.437 1.813c0.693 0.284 1.477 0.284 2.188 0 0.693-0.284 1.229-0.821 1.531-1.532L86.719 52.75C87.323 51.294 86.613 49.604 85.156 49L80.75 47.188c0.604-3.517 0.604-7.077 0-10.594L85.156 34.75c1.456-0.604 2.166-2.262 1.563-3.719L83.625 23.625c-0.284-0.71-0.821-1.278-1.531-1.563-0.693-0.302-1.477-0.302-2.188 0l-4.437 1.844c-2.06-2.913-4.569-5.44-7.5-7.5l1.843-4.437c0.604-1.456-0.075-3.146-1.531-3.75l-7.406-3c-0.693-0.284-1.477-0.284-2.188 0-0.693 0.284-1.229 0.852-1.531 1.562L55.313 11.188c-3.517-0.604-7.077-0.604-10.594-0.001L42.875 6.781C42.431 5.698 41.405 5 40.25 5zM50 19.75c-2.871 0-5.742 0.56-8.469 1.688-5.453 2.256-9.713 6.498-11.969 11.968-2.256 5.471-2.256 11.516 0 16.969 2.771 6.679 8.663 11.58 15.75 13.125l0.094-1.188C38.71 60.856 33.299 56.181 30.688 49.875c-2.131-5.151-2.131-10.818 0-15.969 2.131-5.169 6.162-9.181 11.312-11.312 5.151-2.131 10.818-2.131 15.969 0 5.151 2.131 9.181 6.13 11.312 11.281 2.131 5.151 2.131 10.849 0 16-2.131 5.169-6.162 9.181-11.312 11.312-1.279 0.533-2.427 0.921-3.813 1.188l0.032 1.25c1.456-0.284 2.914-0.713 4.281-1.281 5.453-2.256 9.713-6.498 11.969-11.969 2.256-5.471 2.256-11.516 0-16.969C68.182 27.953 63.922 23.693 58.469 21.438 55.733 20.31 52.871 19.75 50 19.75z m-0.031 6.438c-3.641 0-6.594 2.984-6.594 6.625l0 13.593 0 12.25c0 1.421 1.142 2.563 2.563 2.563l8.093 0c1.421 0 2.58-1.142 2.563-2.563l0-20.5 0-5.343c0-3.641-2.984-6.625-6.625-6.625zM50 27.438c2.966 0 5.357 2.427 5.375 5.375l0 5.343 0 20.5c0 0.728-0.616 1.313-1.344 1.313l-8.062 0c-0.728 0-1.344-0.584-1.344-1.313l0-12.25 0-13.593c0-2.948 2.409-5.375 5.375-5.375z m-3 4.031c-0.995 0-1.813 0.8-1.813 1.812l0 23.907C45.188 58.182 45.988 59 47 59c1.012 0 1.83-0.831 1.813-1.844l0-23.875c0-0.995-0.8-1.813-1.813-1.812z m5.969 0c-1.012 0-1.813 0.8-1.813 1.812l0 23.907c0 0.995 0.8 1.813 1.813 1.812 1.012 0 1.83-0.831 1.812-1.844l0-23.875c0-0.995-0.8-1.813-1.812-1.812zM47 32.719c0.32 0 0.58 0.243 0.563 0.562l0 23.875c0 0.302-0.261 0.594-0.563 0.594-0.302 0-0.594-0.274-0.594-0.594l0-23.875c0-0.302 0.274-0.563 0.594-0.562z m5.969 0c0.32 0 0.58 0.243 0.562 0.562l0 23.875c0 0.302-0.243 0.594-0.562 0.594-0.32 0-0.594-0.274-0.594-0.594l0-23.875c0-0.302 0.274-0.563 0.594-0.562zM47.25 62.75L47.281 78.563c0 1.723-1.508 5.753-2.093 7.156L45.094 85.906 47.438 95 52.125 95 54.438 85.906 54.375 85.719C53.789 84.298 52.25 80.285 52.25 78.563l0.031-15.813-1.25 0 0 15.812c0 2.096 1.685 6.461 2.094 7.438l-1.969 7.75-2.75 0-2-7.75c0.391-0.995 2.125-5.342 2.125-7.438L48.5 62.75l-1.25 0z" fill="#ff851b" data-fill-palette-color="accent"></path></svg></g></svg></g><g></g></svg></g></svg></g></svg></g></svg></g><defs></defs></svg><rect width="320" height="360" fill="none" stroke="none" visibility="hidden"></rect></g></svg></g></svg>