<?xml version="1.0" encoding="UTF-8" standalone="no" ?>
<!DOCTYPE svg PUBLIC "-//W3C//DTD SVG 1.1//EN" "http://www.w3.org/Graphics/SVG/1.1/DTD/svg11.dtd">
<svg xmlns="http://www.w3.org/2000/svg" xmlns:xlink="http://www.w3.org/1999/xlink" version="1.1" width="1080" height="1080" viewBox="0 0 1080 1080" xml:space="preserve">
<desc>Created with Fabric.js 5.2.4</desc>
<defs>
</defs>
<g transform="matrix(1 0 0 1 540 540)" id="9aeae013-6ac9-42ff-81c9-e02f186db778"  >
<rect style="stroke: none; stroke-width: 1; stroke-dasharray: none; stroke-linecap: butt; stroke-dashoffset: 0; stroke-linejoin: miter; stroke-miterlimit: 4; fill: rgb(255,255,255); fill-rule: nonzero; opacity: 1; visibility: hidden;" vector-effect="non-scaling-stroke"  x="-540" y="-540" rx="0" ry="0" width="1080" height="1080" />
</g>
<g transform="matrix(1 0 0 1 540 540)" id="7c4f0b09-2c82-4390-84cd-3280f386285f"  >
</g>
<g transform="matrix(1 0 0 1 540 540)"  >
<g style="" vector-effect="non-scaling-stroke"   >
		<g transform="matrix(3.13 0 0 3.13 0 0)"  >
<path style="stroke: none; stroke-width: 1; stroke-dasharray: none; stroke-linecap: butt; stroke-dashoffset: 0; stroke-linejoin: miter; stroke-miterlimit: 10; fill: rgb(35,53,101); fill-rule: nonzero; opacity: 1;" vector-effect="non-scaling-stroke"  transform=" translate(-160, -180)" d="M 219.58 41.008 C 220.287 41.008 225.94500000000002 43.837 229.127 44.898 C 228.066 45.252 225.591 44.191 222.762 43.13 C 223.469 43.13 224.88400000000001 43.484 226.298 44.190000000000005 C 225.591 43.483000000000004 220.287 41.715 219.58 41.008 M 166.895 30.047 C 167.95600000000002 29.693 180.33100000000002 31.461000000000002 185.989 31.815 C 186.34300000000002 31.461000000000002 185.282 31.461000000000002 183.86700000000002 31.108 C 185.63500000000002 30.754 189.17100000000002 31.815 191.64600000000002 32.168 C 184.221 32.522 176.08800000000002 30.4 169.01700000000002 31.108 C 166.54200000000003 31.108 168.31000000000003 30.401 166.89500000000004 30.047 M 156.641 30.047 C 163.006 30.047 167.956 30.047 158.762 30.754 C 157.701 30.400000000000002 156.287 30.400000000000002 156.641 30.047 M 256.707 59.395 C 257.414 59.395 260.243 62.577000000000005 261.657 63.638000000000005 C 261.303 63.992000000000004 258.47499999999997 61.163000000000004 257.061 60.102000000000004 C 257.41499999999996 60.456 257.061 60.102000000000004 256.707 59.395 M 249.635 54.798 C 246.80599999999998 52.323 245.74599999999998 52.323 245.392 50.909 C 247.867 52.323 249.635 53.738 249.635 54.798 M 204.022 32.522 C 204.376 32.168 205.083 32.876 206.851 33.229 C 204.72899999999998 32.875 205.083 33.229 205.79 33.936 C 203.315 33.582 202.608 33.229 203.315 32.522 C 204.72899999999998 33.229 205.083 32.876 204.022 32.522 M 103.602 36.765 C 103.602 36.411 105.016 35.704 106.077 35.351 C 105.01599999999999 36.058 105.37 36.412 107.138 35.704 C 107.138 36.058 105.016 36.765 103.602 37.472 C 104.309 37.118 105.016 36.058 103.602 36.765 M 211.094 28.986 C 210.033 29.34 206.144 27.218 202.254 26.511 C 200.132 25.804 210.73999999999998 28.279 211.094 28.986 M 2.475 203.66 C 4.5969999999999995 212.5 3.182 212.146 2.475 203.66 M 2.829 150.621 C 3.1830000000000003 149.20700000000002 3.536 145.317 3.8890000000000002 145.67100000000002 C 2.8280000000000003 154.157 1.06 158.04700000000003 0.7070000000000003 164.41100000000003 C 1.7680000000000002 158.75400000000002 0.3530000000000003 167.59300000000002 3.3306690738754696e-16 169.71500000000003 C 0.3540000000000003 172.54400000000004 0.3540000000000003 167.94700000000003 1.0610000000000004 168.65500000000003 C 1.7680000000000002 169.71600000000004 -0.35299999999999954 184.56700000000004 0.3540000000000004 176.43400000000003 C -0.35299999999999954 183.85900000000004 0.3540000000000004 191.99200000000002 1.7680000000000002 194.11300000000003 C 2.220446049250313e-16 205.42800000000003 8.84 230.88600000000002 10.608 236.19000000000003 C 10.962 236.54400000000004 10.608 234.42200000000003 11.315000000000001 235.83700000000002 C 12.022000000000002 240.43400000000003 15.204 243.616 16.265 248.56600000000003 C 17.326 249.98000000000002 21.569000000000003 257.759 22.276 259.528 C 23.69 262.357 24.398 262.00300000000004 25.812 264.831 C 30.055 272.964 36.773 280.743 43.138000000000005 288.168 C 63.646 312.212 95.11600000000001 332.01300000000003 130.122 339.086 C 165.12800000000001 346.511 201.901 341.208 230.541 327.41700000000003 C 232.309 326.35600000000005 231.95499999999998 326.00300000000004 234.077 325.295 C 243.978 322.113 256 311.85900000000004 262.718 307.969 C 265.90000000000003 304.433 274.387 298.42199999999997 275.44800000000004 294.887 C 281.45900000000006 289.937 287.47 281.804 290.65200000000004 276.5 C 292.42 273.671 293.83400000000006 273.671 294.54100000000005 271.903 C 294.18700000000007 271.903 300.19800000000004 264.478 301.96700000000004 260.235 C 301.26000000000005 260.235 300.19900000000007 262.357 300.19900000000007 260.235 C 312.92800000000005 235.83700000000002 320.00000000000006 202.95300000000003 316.11000000000007 180.323 C 316.81700000000006 208.257 309.74500000000006 239.373 296.3090000000001 259.174 C 290.29800000000006 271.90299999999996 277.9220000000001 285.693 266.60800000000006 295.594 C 264.8400000000001 297.36199999999997 263.07200000000006 299.483 260.95000000000005 300.89799999999997 C 254.23200000000006 306.55499999999995 246.80600000000004 311.152 239.02800000000005 315.395 C 220.64100000000005 325.649 200.13300000000004 334.489 176.08800000000005 334.842 C 217.45800000000006 331.306 254.58500000000004 310.44399999999996 275.09400000000005 284.986 C 259.53600000000006 300.19 252.81800000000004 306.20099999999996 235.49200000000005 315.041 C 234.07800000000006 317.516 222.40900000000005 322.466 214.63000000000005 324.588 C 219.22700000000006 322.466 228.77400000000006 318.93100000000004 231.95600000000005 316.10200000000003 C 206.14400000000003 328.478 177.50300000000004 335.55 150.63000000000005 331.66 C 160.88400000000004 331.66 175.38100000000006 332.014 189.17100000000005 329.53900000000004 C 191.29300000000006 328.83200000000005 192.35300000000004 328.12500000000006 194.82900000000004 327.7710000000001 C 221.70200000000003 321.76000000000005 247.51400000000004 308.6770000000001 265.90100000000007 290.2900000000001 C 255.29300000000006 299.8370000000001 239.38200000000006 311.1520000000001 229.12700000000007 314.6880000000001 C 238.67400000000006 309.3840000000001 256.00000000000006 299.1300000000001 261.65700000000004 291.3510000000001 C 250.34200000000004 302.6660000000001 229.12700000000004 313.9810000000001 215.69100000000003 318.9310000000001 C 213.56900000000002 319.2850000000001 217.10500000000002 317.5170000000001 213.56900000000002 318.9310000000001 C 209.32600000000002 319.9920000000001 211.09400000000002 319.9920000000001 210.03300000000002 320.69900000000007 C 193.76800000000003 325.29600000000005 175.02700000000002 329.18500000000006 159.47000000000003 327.7710000000001 C 156.64100000000002 327.4170000000001 155.58100000000002 326.7100000000001 153.10500000000002 326.7100000000001 C 150.276 326.3560000000001 147.80100000000002 326.3560000000001 144.61900000000003 326.3560000000001 C 132.24300000000002 324.9420000000001 118.80700000000003 319.9910000000001 108.90600000000003 315.74900000000014 C 103.60200000000003 313.2740000000001 98.29800000000003 311.50600000000014 92.99400000000003 308.32300000000015 C 88.75100000000003 305.8480000000001 85.21500000000003 303.0190000000002 81.68000000000004 300.19100000000014 C 68.24400000000003 290.29000000000013 56.92900000000003 280.39000000000016 46.320000000000036 266.24600000000015 C 27.226000000000035 239.72700000000015 17.326000000000036 206.48900000000015 18.740000000000038 173.60500000000013 C 20.15400000000004 140.72100000000012 33.23700000000004 108.54400000000012 54.09900000000004 84.85300000000014 C 53.03800000000004 85.91400000000013 55.51300000000004 82.37800000000014 57.63500000000004 80.25700000000013 C 57.63500000000004 80.96400000000013 57.28100000000004 82.02500000000013 59.75700000000004 79.55000000000014 C 61.87900000000004 77.07500000000014 59.05000000000004 78.84300000000015 60.11000000000004 77.42800000000014 C 82.03300000000004 53.38400000000014 120.22100000000003 33.93600000000014 159.47000000000003 33.22900000000014 C 160.88400000000001 32.16800000000014 163.35900000000004 30.75400000000014 166.18800000000002 31.46100000000014 C 166.18800000000002 31.81500000000014 164.42000000000002 31.81500000000014 164.42000000000002 31.81500000000014 C 168.30900000000003 31.46100000000014 171.84500000000003 31.46100000000014 173.61300000000003 32.16800000000014 C 173.96700000000004 31.814000000000142 172.19900000000004 31.46100000000014 173.61300000000003 31.46100000000014 C 176.08800000000002 32.16800000000014 176.79500000000002 31.46100000000014 178.21000000000004 32.16800000000014 C 177.14900000000003 32.16800000000014 176.08800000000002 32.16800000000014 175.38100000000003 32.52200000000014 C 184.22100000000003 32.52200000000014 189.87800000000004 34.64400000000014 198.71800000000002 35.35100000000014 C 194.121 34.29000000000014 193.061 34.29000000000014 189.525 33.22900000000014 C 193.41400000000002 33.93600000000014 195.18200000000002 34.64300000000014 196.95000000000002 34.29000000000014 C 196.24300000000002 34.29000000000014 196.596 33.22900000000014 197.30400000000003 33.58300000000014 C 204.37600000000003 35.35100000000014 205.08300000000003 36.05800000000014 212.50800000000004 38.53300000000014 C 213.21500000000003 37.82600000000014 209.32600000000005 37.47200000000014 208.26500000000004 36.41100000000014 C 215.33700000000005 38.886000000000145 221.70100000000005 40.654000000000146 225.94500000000005 43.483000000000146 C 224.53100000000006 42.422000000000146 220.28800000000004 41.008000000000145 217.10500000000005 39.59400000000014 C 216.75100000000003 39.94800000000014 218.16600000000005 40.301000000000144 218.51900000000003 41.008000000000145 C 214.98300000000003 39.240000000000144 210.03300000000004 37.47200000000014 205.08300000000003 36.76500000000014 C 209.32600000000002 37.82600000000014 212.15500000000003 39.240000000000144 213.92300000000003 39.947000000000145 C 210.03400000000002 39.240000000000144 205.08300000000003 36.76500000000014 199.42500000000004 35.70400000000014 C 208.61800000000005 38.53300000000014 225.94400000000005 44.89700000000014 236.55200000000005 50.55500000000014 C 232.66300000000004 48.08000000000014 228.06600000000006 46.31200000000014 225.59100000000004 44.89800000000014 C 227.71300000000002 45.25200000000014 230.18800000000005 46.66600000000014 230.18800000000005 45.95800000000014 C 232.66300000000004 47.01900000000014 235.84500000000006 49.49400000000014 237.61300000000006 49.84800000000014 C 234.43100000000007 47.72600000000014 228.06600000000006 44.54400000000014 225.94500000000005 43.48300000000014 C 252.46400000000006 55.50500000000014 276.15500000000003 75.66000000000014 291.35900000000004 101.47200000000014 C 292.773 103.94700000000013 294.89500000000004 109.60500000000013 296.663 110.31200000000014 C 296.309 108.54400000000014 294.89500000000004 107.48300000000015 293.481 104.65500000000014 C 294.188 104.65500000000014 294.188 103.59400000000014 293.481 102.53300000000014 C 292.067 100.76500000000014 293.481 103.94700000000014 292.066 102.17900000000014 C 285.70099999999996 90.51000000000015 277.92199999999997 80.25600000000014 265.90099999999995 68.94200000000015 C 272.61899999999997 75.30700000000014 267.6689999999999 70.71000000000015 266.25399999999996 68.58800000000015 C 275.44699999999995 76.72100000000015 286.05499999999995 90.51100000000015 290.652 97.58300000000015 C 289.945 96.52200000000016 289.591 95.81500000000015 289.945 95.81500000000015 C 298.431 110.31200000000015 303.735 123.39500000000015 309.039 142.13500000000016 C 309.393 142.48900000000017 309.039 140.72100000000017 309.746 141.78200000000015 C 313.282 156.63300000000015 314.34299999999996 169.00900000000016 313.989 180.32300000000015 C 316.818 161.22900000000016 310.453 131.52700000000016 299.138 108.19000000000015 C 297.724 105.36100000000016 297.724 107.48300000000016 296.30899999999997 104.30100000000016 C 296.30899999999997 103.24000000000015 295.248 101.11900000000016 294.541 99.70400000000016 C 280.397 76.36700000000016 263.071 59.74800000000016 242.563 46.66600000000017 C 243.97699999999998 47.37300000000017 246.80599999999998 49.49500000000017 246.807 49.14100000000017 C 208.61899999999997 24.03600000000017 164.42 20.50000000000017 127.99999999999999 28.27900000000017 C 125.52499999999999 29.34000000000017 124.46399999999998 30.40100000000017 121.63499999999999 31.815000000000172 C 126.939 30.04700000000017 130.12099999999998 29.693000000000172 135.072 28.632000000000172 C 136.133 27.571000000000172 130.475 28.98600000000017 132.95 27.92500000000017 C 133.304 28.27900000000017 137.89999999999998 27.21800000000017 138.96099999999998 27.57200000000017 C 138.96099999999998 27.92600000000017 137.547 28.27900000000017 137.19299999999998 28.63200000000017 C 148.862 26.157000000000167 160.884 25.803000000000168 171.13799999999998 26.51100000000017 C 165.12699999999998 26.86500000000017 154.16599999999997 25.80400000000017 150.62999999999997 27.57200000000017 C 154.16599999999997 27.21800000000017 159.11599999999996 26.86500000000017 162.29799999999997 27.21800000000017 C 158.05499999999998 27.21800000000017 150.27599999999998 27.57200000000017 146.73999999999998 27.92500000000017 C 146.38599999999997 27.571000000000172 152.397 26.86400000000017 148.50799999999998 26.865000000000173 C 146.73999999999998 27.21900000000017 143.91099999999997 27.21900000000017 142.85099999999997 28.279000000000174 C 112.44199999999998 31.108000000000175 82.73999999999998 47.019000000000176 61.87799999999997 65.76000000000018 C 57.63499999999997 69.29600000000018 52.684999999999974 73.18500000000017 49.50299999999997 77.07400000000018 C 41.723999999999975 85.91400000000019 36.77399999999997 94.75400000000019 31.11599999999997 102.53300000000019 C 34.65199999999997 95.10800000000019 42.43099999999997 83.79300000000019 51.62399999999997 74.24600000000018 C 60.816999999999965 64.69900000000018 70.71799999999996 56.56600000000018 76.02199999999996 52.32300000000018 C 76.02199999999996 53.73700000000018 84.50799999999997 47.019000000000176 87.69099999999996 44.89800000000018 C 85.56899999999996 46.66600000000018 89.10499999999996 44.19100000000018 89.81199999999995 44.54400000000018 C 101.12699999999995 37.82600000000018 110.31999999999995 35.351000000000184 120.57499999999996 31.461000000000183 C 118.09999999999997 32.168000000000184 115.97799999999997 32.875000000000185 115.62399999999997 32.52200000000018 C 118.09899999999996 31.815000000000182 119.51299999999996 31.10800000000018 119.15999999999997 30.754000000000183 C 109.25899999999997 33.58300000000018 93.70099999999996 40.30100000000019 81.32599999999996 47.726000000000184 C 103.60199999999996 32.52200000000018 131.88999999999996 23.328000000000184 159.82299999999998 22.975000000000183 C 187.75699999999998 22.268000000000182 214.98299999999998 29.34000000000018 236.55199999999996 40.655000000000186 C 251.04899999999998 47.02000000000019 264.83899999999994 58.68800000000019 275.801 70.00300000000018 C 278.983 72.83200000000018 276.508 69.29600000000019 281.10499999999996 74.24600000000018 C 279.691 73.53900000000019 278.62999999999994 72.83200000000018 280.39799999999997 74.95300000000017 C 283.227 78.13500000000018 279.691 72.47800000000018 284.287 78.13500000000018 C 283.933 78.13500000000018 282.519 76.36700000000017 282.519 77.07400000000018 C 294.895 88.03500000000018 304.442 107.83600000000018 310.099 120.92000000000019 C 308.685 115.61600000000018 305.149 108.19100000000019 302.32 102.88700000000019 C 310.806 118.44500000000019 313.635 127.63800000000019 317.171 141.42800000000017 C 318.585 142.48900000000017 316.464 136.47800000000018 317.878 139.30700000000016 C 318.23199999999997 141.42900000000014 318.585 148.14700000000016 320 149.20700000000016 C 318.939 142.48900000000017 317.171 134.35600000000017 315.757 132.94200000000018 C 316.818 133.64900000000017 313.98900000000003 124.80900000000018 312.221 122.68800000000017 C 311.514 117.03100000000018 306.564 107.13000000000017 302.32 99.70400000000018 C 287.116 70.00200000000018 259.889 45.60500000000018 229.481 32.16800000000018 C 229.481 31.461000000000176 227.713 30.754000000000175 227.005 30.04700000000018 C 196.95 17.31800000000018 160.88299999999998 13.782000000000178 126.232 21.91400000000018 C 91.226 30.40000000000018 58.343 50.55500000000018 35.004999999999995 79.55000000000018 C 36.065999999999995 76.01400000000018 44.90599999999999 69.29600000000018 45.26 66.46700000000018 C 35.006 77.42800000000018 24.044999999999998 91.92600000000019 16.619 107.48300000000017 C 8.84 123.04100000000017 4.5969999999999995 138.95300000000017 2.8290000000000006 150.62100000000018" stroke-linecap="round" />
</g>
		<g transform="matrix(1.63 0 0 1.63 0.02 93.75)"  >
<path style="stroke: none; stroke-width: 1; stroke-dasharray: none; stroke-linecap: butt; stroke-dashoffset: 0; stroke-linejoin: miter; stroke-miterlimit: 4; fill: rgb(35,53,101); fill-rule: nonzero; opacity: 1;" vector-effect="non-scaling-stroke"  transform=" translate(-214.69, 17.88)" d="M 35.6 0 L 35.6 -22 L 26.15 -2.9 L 21.5 -2.9 L 12.1 -22 L 12.1 0 L -0.55 0 L -0.55 -2.15 L 4.3 -2.15 L 4.3 -34.95 L 14.85 -34.95 L 23.85 -15.75 L 32.9 -34.95 L 43.4 -34.95 L 43.4 -2.15 L 48.25 -2.15 L 48.25 0 L 35.6 0 Z M 84.25 -2.15 L 90.05 -2.15 L 90.05 0 L 76.9 0 L 73.65 -7.55 L 59 -7.55 L 55.75 0 L 42.6 0 L 42.6 -2.15 L 48.35 -2.15 L 62.55 -34.95 L 70.1 -34.95 L 84.25 -2.15 Z M 70.7 -14.4 L 66.35 -24.55 L 61.95 -14.4 L 70.7 -14.4 Z M 104.05 -2.15 L 115.35 -2.15 L 115.35 0 L 84.95 0 L 84.95 -2.15 L 96.25 -2.15 L 96.25 -28.2 L 86.35 -28.2 L 86.35 -34.95 L 113.95 -34.95 L 113.95 -28.2 L 104.05 -28.2 L 104.05 -2.15 Z M 134.44 -2.15 L 145.74 -2.15 L 145.74 0 L 115.34 0 L 115.34 -2.15 L 126.64 -2.15 L 126.64 -28.2 L 116.74 -28.2 L 116.74 -34.95 L 144.34 -34.95 L 144.34 -28.2 L 134.44 -28.2 L 134.44 -2.15 Z M 145.19 -2.15 L 150.04 -2.15 L 150.04 -34.95 L 175.24 -34.95 L 175.24 -28 L 157.84 -28 L 157.84 -20.8 L 173.49 -20.8 L 173.49 -14.15 L 157.84 -14.15 L 157.84 -6.9 L 175.79 -6.9 L 175.79 -2.15 L 180.64 -2.15 L 180.64 0 L 145.19 0 L 145.19 -2.15 Z M 205.74 -2.15 L 217.54 -2.15 L 217.54 0 L 177.89 0 L 177.89 -2.15 L 182.74 -2.15 L 182.74 -34.95 L 195.09 -34.95 Q 204.44 -34.95 209.44 -30.38 Q 214.44 -25.8 214.44 -17.5 L 214.44 -17.5 Q 214.44 -6.3 205.74 -2.15 L 205.74 -2.15 Z M 195.49 -6.9 Q 200.84 -6.9 203.71 -9.6 Q 206.59 -12.3 206.59 -17.45 Q 206.59 -22.6 203.71 -25.38 Q 200.84 -28.15 194.89 -28.15 L 194.89 -28.15 L 190.54 -28.15 L 190.54 -6.9 L 195.49 -6.9 Z M 229.63 -2.15 L 233.94 -2.15 L 233.94 0 L 217.53 0 L 217.53 -2.15 L 221.84 -2.15 L 221.84 -34.95 L 229.63 -34.95 L 229.63 -2.15 Z M 273.58 -2.15 L 284.88 -2.15 L 284.88 0 L 267.03 0 L 259.38 -24.3 L 251.78 0 L 233.93 0 L 233.93 -2.15 L 245.23 -2.15 L 233.78 -34.95 L 242.23 -34.95 L 249.13 -14.85 L 255.33 -34.95 L 263.48 -34.95 L 269.63 -14.85 L 276.58 -34.95 L 285.03 -34.95 L 273.58 -2.15 Z M 315.03 -2.15 L 326.18 -2.15 L 326.18 0 L 284.88 0 L 284.88 -2.15 L 296.03 -2.15 Q 291.93 -4.5 289.56 -8.6 Q 287.18 -12.7 287.18 -17.7 L 287.18 -17.7 Q 287.18 -25.4 292.48 -30.58 Q 297.78 -35.75 305.53 -35.75 Q 313.28 -35.75 318.58 -30.58 Q 323.88 -25.4 323.88 -17.7 L 323.88 -17.7 Q 323.88 -12.7 321.48 -8.6 Q 319.08 -4.5 315.03 -2.15 L 315.03 -2.15 Z M 315.93 -17.68 Q 315.93 -22.35 312.93 -25.65 Q 309.93 -28.95 305.56 -28.95 Q 301.18 -28.95 298.18 -25.65 Q 295.18 -22.35 295.18 -17.68 Q 295.18 -13 298.18 -9.73 Q 301.18 -6.45 305.56 -6.45 Q 309.93 -6.45 312.93 -9.73 Q 315.93 -13 315.93 -17.68 Z M 325.63 -2.15 L 330.48 -2.15 L 330.48 -34.95 L 343.73 -34.95 Q 351.88 -34.95 355.35 -32.2 Q 358.83 -29.45 358.83 -23.35 L 358.83 -23.35 Q 358.83 -14.95 352.18 -12.5 L 352.18 -12.5 L 359.48 -2.15 L 364.18 -2.15 L 364.18 0 L 351.43 0 L 343.68 -11.15 L 338.28 -11.15 L 338.28 0 L 325.63 0 L 325.63 -2.15 Z M 343.98 -17.9 Q 347.98 -17.9 349.43 -19.2 Q 350.88 -20.5 350.88 -23.33 Q 350.88 -26.15 349.38 -27.2 Q 347.88 -28.25 344.13 -28.25 L 344.13 -28.25 L 338.28 -28.25 L 338.28 -17.9 L 343.98 -17.9 Z M 397.48 -34.95 L 383.58 -19.5 L 395.93 -2.15 L 400.08 -2.15 L 400.08 0 L 388.38 0 L 378.13 -13.8 L 374.63 -9.9 L 374.63 0 L 362.53 0 L 362.53 -2.15 L 366.83 -2.15 L 366.83 -34.95 L 374.63 -34.95 L 374.63 -20.6 L 387.83 -34.95 L 397.48 -34.95 Z M 423.52 -2.15 L 429.92 -2.15 L 429.92 0 L 398.02 0 L 398.02 -2.15 L 404.82 -2.15 Q 402.07 -3.55 399.82 -5.75 L 399.82 -5.75 L 404.47 -11.45 Q 410.12 -6.5 414.92 -6.5 L 414.92 -6.5 Q 417.07 -6.5 418.3 -7.43 Q 419.52 -8.35 419.52 -9.93 Q 419.52 -11.5 418.22 -12.43 Q 416.92 -13.35 413.07 -14.3 L 413.07 -14.3 Q 406.97 -15.75 404.15 -18.07 Q 401.32 -20.4 401.32 -25.38 Q 401.32 -30.35 404.9 -33.05 Q 408.47 -35.75 413.82 -35.75 L 413.82 -35.75 Q 417.32 -35.75 420.82 -34.55 Q 424.32 -33.35 426.92 -31.15 L 426.92 -31.15 L 422.97 -25.45 Q 418.42 -28.9 413.57 -28.9 L 413.57 -28.9 Q 411.62 -28.9 410.5 -27.98 Q 409.37 -27.05 409.37 -25.53 Q 409.37 -24 410.75 -23.1 Q 412.12 -22.2 417.1 -20.98 Q 422.07 -19.75 424.82 -17.3 Q 427.57 -14.85 427.57 -10.5 L 427.57 -10.5 Q 427.57 -5.1 423.52 -2.15 L 423.52 -2.15 Z" stroke-linecap="round" />
</g>
		<g transform="matrix(0.73 0 0 0.73 0 154.5)" id="text-1"  >
<path style="stroke: none; stroke-width: 1; stroke-dasharray: none; stroke-linecap: butt; stroke-dashoffset: 0; stroke-linejoin: miter; stroke-miterlimit: 4; fill: rgb(35,53,101); fill-rule: nonzero; opacity: 1;" vector-effect="non-scaling-stroke"  transform=" translate(-478.5, 14.23)" d="M 6.35 0 L 1.6 0 L 17.4 -37.65 L 17.7 -37.65 L 33.45 0 L 27.9 0 L 16.1 -30.05 L 19.55 -32.3 L 6.35 0 Z M 9.45 -9.5 L 10.85 -13.7 L 24.3 -13.7 L 25.9 -9.5 L 9.45 -9.5 Z M 72.57 0 L 72.57 -38.7 L 77.22 -38.7 L 77.22 0 L 72.57 0 Z M 127.98 -20.7 L 131.98 -20.7 L 138.08 -6.75 L 137.18 -6.65 L 142.88 -20.7 L 147.43 -20.7 L 137.93 1.25 L 131.28 -12.95 L 125.23 1.25 L 115.63 -20.7 L 120.18 -20.7 L 126.63 -6.1 L 125.03 -6.4 L 129.63 -17.1 L 127.98 -20.7 Z M 193.85 0.5 L 193.85 0.5 Q 190.95 0.5 188.57 -0.75 Q 186.2 -2 184.82 -4.42 Q 183.45 -6.85 183.45 -10.35 L 183.45 -10.35 Q 183.45 -13.8 184.9 -16.32 Q 186.35 -18.85 188.77 -20.2 Q 191.2 -21.55 194.1 -21.55 L 194.1 -21.55 Q 197 -21.55 199 -20.23 Q 201 -18.9 202.05 -17.1 L 202.05 -17.1 L 201.75 -16.3 L 202.2 -20.7 L 206.5 -20.7 L 206.5 0 L 201.85 0 L 201.85 -5.4 L 202.35 -4.2 Q 202.15 -3.7 201.47 -2.93 Q 200.8 -2.15 199.67 -1.35 Q 198.55 -0.55 197.1 -0.03 Q 195.65 0.5 193.85 0.5 Z M 195.1 -3.35 L 195.1 -3.35 Q 196.85 -3.35 198.25 -4 Q 199.65 -4.65 200.57 -5.83 Q 201.5 -7 201.85 -8.65 L 201.85 -8.65 L 201.85 -12.7 Q 201.45 -14.2 200.45 -15.33 Q 199.45 -16.45 198.05 -17.07 Q 196.65 -17.7 194.95 -17.7 L 194.95 -17.7 Q 193.1 -17.7 191.55 -16.8 Q 190 -15.9 189.07 -14.3 Q 188.15 -12.7 188.15 -10.55 L 188.15 -10.55 Q 188.15 -8.55 189.1 -6.9 Q 190.05 -5.25 191.65 -4.3 Q 193.25 -3.35 195.1 -3.35 Z M 254.36 9.95 L 249.76 9.95 L 263.41 -20.7 L 267.71 -20.7 L 254.36 9.95 Z M 258.51 -2.2 L 254.86 0.15 L 244.91 -20.7 L 250.16 -20.7 L 258.51 -2.2 Z M 311.98 0.4 L 311.98 0.4 Q 309.78 0.4 307.71 -0.38 Q 305.63 -1.15 304.28 -2.7 L 304.28 -2.7 L 306.23 -5.4 Q 307.53 -4.15 308.91 -3.53 Q 310.28 -2.9 311.63 -2.9 L 311.63 -2.9 Q 312.63 -2.9 313.48 -3.15 Q 314.33 -3.4 314.86 -3.98 Q 315.38 -4.55 315.38 -5.55 L 315.38 -5.55 Q 315.38 -6.65 314.66 -7.3 Q 313.93 -7.95 312.81 -8.35 Q 311.68 -8.75 310.43 -9.1 L 310.43 -9.1 Q 307.88 -9.95 306.53 -11.45 Q 305.18 -12.95 305.18 -15.1 L 305.18 -15.1 Q 305.18 -16.75 306.01 -18.18 Q 306.83 -19.6 308.46 -20.5 Q 310.08 -21.4 312.48 -21.4 L 312.48 -21.4 Q 314.63 -21.4 316.33 -20.88 Q 318.03 -20.35 319.53 -19.15 L 319.53 -19.15 L 317.68 -16.25 Q 316.78 -17.2 315.53 -17.65 Q 314.28 -18.1 313.28 -18.15 L 313.28 -18.15 Q 312.43 -18.2 311.66 -17.9 Q 310.88 -17.6 310.38 -17.05 Q 309.88 -16.5 309.88 -15.75 L 309.88 -15.75 Q 309.88 -14.7 310.58 -14.05 Q 311.28 -13.4 312.41 -13.03 Q 313.53 -12.65 314.63 -12.25 L 314.63 -12.25 Q 316.18 -11.8 317.38 -11.05 Q 318.58 -10.3 319.31 -9.2 Q 320.03 -8.1 320.03 -6.45 L 320.03 -6.45 Q 320.03 -4.6 319.16 -3.03 Q 318.28 -1.45 316.51 -0.53 Q 314.73 0.4 311.98 0.4 Z M 422.01 0 L 410.41 0 L 410.41 -36.15 L 420.26 -36.15 Q 425.61 -36.15 429.39 -34.5 Q 433.16 -32.85 435.46 -30.15 Q 437.76 -27.45 438.84 -24.18 Q 439.91 -20.9 439.91 -17.65 L 439.91 -17.65 Q 439.91 -13.55 438.49 -10.3 Q 437.06 -7.05 434.56 -4.75 Q 432.06 -2.45 428.84 -1.23 Q 425.61 0 422.01 0 L 422.01 0 Z M 415.26 -31.5 L 415.26 -4.65 L 421.06 -4.65 Q 424.06 -4.65 426.59 -5.55 Q 429.11 -6.45 430.99 -8.15 Q 432.86 -9.85 433.91 -12.33 Q 434.96 -14.8 434.96 -17.95 L 434.96 -17.95 Q 434.96 -21.3 433.86 -23.83 Q 432.76 -26.35 430.86 -28.05 Q 428.96 -29.75 426.56 -30.63 Q 424.16 -31.5 421.51 -31.5 L 421.51 -31.5 L 415.26 -31.5 Z M 489.98 0.5 L 489.98 0.5 Q 486.43 0.5 483.88 -0.93 Q 481.33 -2.35 479.95 -4.83 Q 478.58 -7.3 478.58 -10.5 L 478.58 -10.5 Q 478.58 -13.55 480.13 -16.05 Q 481.68 -18.55 484.28 -20.05 Q 486.88 -21.55 490.08 -21.55 L 490.08 -21.55 Q 494.18 -21.55 496.88 -19.15 Q 499.58 -16.75 500.53 -12.55 L 500.53 -12.55 L 483.48 -6.55 L 482.38 -9.3 L 496.38 -14.4 L 495.38 -13.75 Q 494.78 -15.4 493.38 -16.63 Q 491.98 -17.85 489.73 -17.85 L 489.73 -17.85 Q 487.83 -17.85 486.33 -16.93 Q 484.83 -16 483.98 -14.4 Q 483.13 -12.8 483.13 -10.75 L 483.13 -10.75 Q 483.13 -8.6 484.03 -6.98 Q 484.93 -5.35 486.5 -4.42 Q 488.08 -3.5 490.08 -3.5 L 490.08 -3.5 Q 491.43 -3.5 492.7 -4 Q 493.98 -4.5 495.08 -5.3 L 495.08 -5.3 L 497.23 -1.85 Q 495.68 -0.8 493.75 -0.15 Q 491.83 0.5 489.98 0.5 Z M 547.8 0.6 L 547.55 0.6 L 536.05 -20.7 L 541.55 -20.7 L 549.35 -4.25 L 546.5 -4.35 L 553.65 -20.7 L 558.85 -20.7 L 547.8 0.6 Z M 606.41 0.5 L 606.41 0.5 Q 602.86 0.5 600.31 -0.93 Q 597.76 -2.35 596.39 -4.83 Q 595.01 -7.3 595.01 -10.5 L 595.01 -10.5 Q 595.01 -13.55 596.56 -16.05 Q 598.11 -18.55 600.71 -20.05 Q 603.31 -21.55 606.51 -21.55 L 606.51 -21.55 Q 610.61 -21.55 613.31 -19.15 Q 616.01 -16.75 616.96 -12.55 L 616.96 -12.55 L 599.91 -6.55 L 598.81 -9.3 L 612.81 -14.4 L 611.81 -13.75 Q 611.21 -15.4 609.81 -16.63 Q 608.41 -17.85 606.16 -17.85 L 606.16 -17.85 Q 604.26 -17.85 602.76 -16.93 Q 601.26 -16 600.41 -14.4 Q 599.56 -12.8 599.56 -10.75 L 599.56 -10.75 Q 599.56 -8.6 600.46 -6.98 Q 601.36 -5.35 602.94 -4.42 Q 604.51 -3.5 606.51 -3.5 L 606.51 -3.5 Q 607.86 -3.5 609.14 -4 Q 610.41 -4.5 611.51 -5.3 L 611.51 -5.3 L 613.66 -1.85 Q 612.11 -0.8 610.19 -0.15 Q 608.26 0.5 606.41 0.5 Z M 656.28 0 L 656.28 -38.7 L 660.93 -38.7 L 660.93 0 L 656.28 0 Z M 700.64 -10.55 L 700.64 -10.55 Q 700.64 -13.65 702.12 -16.15 Q 703.59 -18.65 706.19 -20.1 Q 708.79 -21.55 712.09 -21.55 L 712.09 -21.55 Q 715.49 -21.55 718.04 -20.1 Q 720.59 -18.65 721.99 -16.15 Q 723.39 -13.65 723.39 -10.55 L 723.39 -10.55 Q 723.39 -7.45 721.99 -4.93 Q 720.59 -2.4 718.02 -0.95 Q 715.44 0.5 712.04 0.5 L 712.04 0.5 Q 708.74 0.5 706.17 -0.88 Q 703.59 -2.25 702.12 -4.73 Q 700.64 -7.2 700.64 -10.55 Z M 705.29 -10.5 L 705.29 -10.5 Q 705.29 -8.5 706.19 -6.88 Q 707.09 -5.25 708.62 -4.3 Q 710.14 -3.35 711.99 -3.35 L 711.99 -3.35 Q 713.94 -3.35 715.47 -4.3 Q 716.99 -5.25 717.84 -6.88 Q 718.69 -8.5 718.69 -10.5 L 718.69 -10.5 Q 718.69 -12.5 717.84 -14.13 Q 716.99 -15.75 715.47 -16.73 Q 713.94 -17.7 711.99 -17.7 L 711.99 -17.7 Q 710.09 -17.7 708.57 -16.7 Q 707.04 -15.7 706.17 -14.08 Q 705.29 -12.45 705.29 -10.5 Z M 775.36 0.5 L 775.36 0.5 Q 773.01 0.5 770.84 -0.6 Q 768.66 -1.7 767.46 -3.55 L 767.46 -3.55 L 767.76 -5 L 767.76 9.95 L 763.16 9.95 L 763.16 -21 L 767.16 -21 L 767.81 -15.7 L 767.31 -17.15 Q 768.81 -19.05 771.11 -20.3 Q 773.41 -21.55 776.26 -21.55 L 776.26 -21.55 Q 779.16 -21.55 781.49 -20.15 Q 783.81 -18.75 785.16 -16.25 Q 786.51 -13.75 786.51 -10.4 L 786.51 -10.4 Q 786.51 -7.05 785.06 -4.6 Q 783.61 -2.15 781.09 -0.83 Q 778.56 0.5 775.36 0.5 Z M 774.46 -3.2 L 774.46 -3.2 Q 776.46 -3.2 778.14 -4.13 Q 779.81 -5.05 780.81 -6.68 Q 781.81 -8.3 781.81 -10.35 L 781.81 -10.35 Q 781.81 -12.45 780.86 -14.08 Q 779.91 -15.7 778.34 -16.65 Q 776.76 -17.6 774.81 -17.6 L 774.81 -17.6 Q 773.01 -17.6 771.56 -16.9 Q 770.11 -16.2 769.16 -14.98 Q 768.21 -13.75 767.81 -12.15 L 767.81 -12.15 L 767.81 -8.7 Q 768.06 -7.1 769.01 -5.85 Q 769.96 -4.6 771.39 -3.9 Q 772.81 -3.2 774.46 -3.2 Z M 826.28 0 L 826.28 -20.7 L 830.93 -20.7 L 830.93 0 L 826.28 0 Z M 825.93 -28.2 L 825.93 -28.2 Q 825.93 -29.3 826.8 -30.05 Q 827.68 -30.8 828.73 -30.8 L 828.73 -30.8 Q 829.78 -30.8 830.6 -30.05 Q 831.43 -29.3 831.43 -28.2 L 831.43 -28.2 Q 831.43 -27.05 830.6 -26.33 Q 829.78 -25.6 828.73 -25.6 L 828.73 -25.6 Q 827.68 -25.6 826.8 -26.35 Q 825.93 -27.1 825.93 -28.2 Z M 872.44 -20.7 L 876.59 -20.7 L 876.99 -15.65 L 876.79 -16.45 Q 877.79 -18.75 880.04 -20.13 Q 882.29 -21.5 885.24 -21.5 L 885.24 -21.5 Q 888.19 -21.5 890.07 -19.78 Q 891.94 -18.05 891.99 -15.3 L 891.99 -15.3 L 891.99 0 L 887.29 0 L 887.29 -13.65 Q 887.24 -15.35 886.32 -16.43 Q 885.39 -17.5 883.44 -17.5 L 883.44 -17.5 Q 881.64 -17.5 880.19 -16.5 Q 878.74 -15.5 877.92 -13.75 Q 877.09 -12 877.09 -9.7 L 877.09 -9.7 L 877.09 0 L 872.44 0 L 872.44 -20.7 Z M 943.51 10.25 L 943.51 10.25 Q 941.21 10.25 939.46 9.73 Q 937.71 9.2 936.28 8.25 Q 934.86 7.3 933.56 6.1 L 933.56 6.1 L 936.26 2.95 Q 937.91 4.5 939.61 5.35 Q 941.31 6.2 943.41 6.2 L 943.41 6.2 Q 945.76 6.2 947.38 5.43 Q 949.01 4.65 949.86 3.28 Q 950.71 1.9 950.71 0.1 L 950.71 0.1 L 950.76 -5.5 L 951.16 -4.6 Q 950.26 -2.45 947.91 -0.98 Q 945.56 0.5 942.21 0.5 L 942.21 0.5 Q 939.36 0.5 936.98 -0.95 Q 934.61 -2.4 933.18 -4.88 Q 931.76 -7.35 931.76 -10.45 L 931.76 -10.45 Q 931.76 -13.7 933.26 -16.18 Q 934.76 -18.65 937.21 -20.1 Q 939.66 -21.55 942.56 -21.55 L 942.56 -21.55 Q 945.31 -21.55 947.58 -20.43 Q 949.86 -19.3 950.91 -17.55 L 950.91 -17.55 L 950.66 -16.7 L 951.16 -20.7 L 955.41 -20.7 L 955.41 0.15 Q 955.41 2.95 953.96 5.25 Q 952.51 7.55 949.86 8.9 Q 947.21 10.25 943.51 10.25 Z M 936.41 -10.55 L 936.41 -10.55 Q 936.41 -8.55 937.36 -6.9 Q 938.31 -5.25 939.93 -4.3 Q 941.56 -3.35 943.56 -3.35 L 943.56 -3.35 Q 945.41 -3.35 946.88 -4.03 Q 948.36 -4.7 949.36 -5.88 Q 950.36 -7.05 950.76 -8.6 L 950.76 -8.6 L 950.76 -12.7 Q 950.31 -14.2 949.26 -15.33 Q 948.21 -16.45 946.76 -17.07 Q 945.31 -17.7 943.56 -17.7 L 943.56 -17.7 Q 941.56 -17.7 939.93 -16.8 Q 938.31 -15.9 937.36 -14.28 Q 936.41 -12.65 936.41 -10.55 Z" stroke-linecap="round" />
</g>
		<g transform="matrix(2.48 0 0 2.48 0 -60.75)"  >
<path style="stroke: none; stroke-width: 1; stroke-dasharray: none; stroke-linecap: butt; stroke-dashoffset: 0; stroke-linejoin: miter; stroke-miterlimit: 4; fill: rgb(255,133,27); fill-rule: nonzero; opacity: 1;" vector-effect="non-scaling-stroke"  transform=" translate(-50, -50)" d="M 40.25 5 C 39.859 5 39.48 5.077 39.125 5.219 L 31.719 8.281 C 30.263 8.885 29.584000000000003 10.575000000000001 30.187 12.031 L 32.031 16.438000000000002 C 29.118 18.481 26.590999999999998 21.007 24.531 23.938000000000002 L 20.093999999999998 22.094 C 19.383999999999997 21.810000000000002 18.616999999999997 21.810000000000002 17.906 22.094 C 17.195999999999998 22.378 16.677 22.946 16.375 23.656000000000002 L 13.281 31.031000000000002 C 12.677000000000001 32.487 13.387 34.177 14.844000000000001 34.781000000000006 L 19.25 36.625 C 18.646 40.142 18.646 43.702 19.25 47.219 L 14.844000000000001 49.063 C 13.388000000000002 49.667 12.678 51.325 13.281 52.781000000000006 L 16.375 60.188 C 16.659 60.898 17.196 61.435 17.906 61.719 C 18.599 62.021 19.383 62.021 20.093999999999998 61.719 L 24.5 59.906 C 26.56 62.818999999999996 29.101 65.346 32.031 67.406 L 30.188 71.813 C 29.584 73.269 30.262999999999998 74.959 31.718999999999998 75.562 L 39.125 78.625 C 39.835 78.909 40.602 78.909 41.313 78.625 C 42.023 78.341 42.574000000000005 77.804 42.875 77.094 L 44.687 72.65599999999999 C 44.936 72.70899999999999 45.187999999999995 72.74499999999999 45.437 72.78099999999999 L 45.437 71.562 C 45.082 71.491 44.881 71.432 44.437 71.344 L 43.937 71.25 L 41.718999999999994 76.594 C 41.559 76.985 41.23499999999999 77.309 40.843999999999994 77.469 C 40.434999999999995 77.62899999999999 40.00299999999999 77.62899999999999 39.593999999999994 77.469 L 32.187 74.40599999999999 C 31.369999999999997 74.06899999999999 30.974999999999998 73.14699999999999 31.311999999999998 72.312 L 33.531 66.969 L 33.125 66.65599999999999 C 29.999 64.52499999999999 27.332 61.88899999999999 25.219 58.78099999999999 L 24.937 58.343999999999994 L 19.594 60.562 C 19.185000000000002 60.721999999999994 18.735 60.721999999999994 18.344 60.562 C 17.953 60.403 17.66 60.127 17.5 59.719 L 14.406 52.313 C 14.051 51.496 14.464 50.525000000000006 15.281 50.187000000000005 L 20.625 47.96900000000001 L 20.531 47.46900000000001 C 19.820999999999998 43.79200000000001 19.820999999999998 40.05600000000001 20.531 36.34400000000001 L 20.625 35.84400000000001 L 15.281 33.625 C 14.464 33.288 14.069 32.335 14.406 31.5 L 17.5 24.125 C 17.837 23.308 18.777 22.913 19.594 23.25 L 24.938000000000002 25.469 L 25.219 25.031000000000002 C 27.35 21.905 30.017000000000003 19.270000000000003 33.125 17.156000000000002 L 33.531 16.875 L 31.313 11.531 C 30.958 10.714 31.371 9.743 32.188 9.406 L 39.594 6.344000000000001 C 39.807 6.255000000000001 40.037 6.219000000000001 40.25 6.219000000000001 C 40.889 6.219000000000001 41.47 6.584000000000001 41.719 7.187000000000001 L 43.938 12.562000000000001 L 44.438 12.469000000000001 C 48.115 11.759 51.851 11.759 55.563 12.469000000000001 L 56.063 12.562000000000001 L 58.281000000000006 7.187000000000001 C 58.61800000000001 6.370000000000001 59.571000000000005 6.006000000000001 60.406000000000006 6.344000000000001 L 67.781 9.375000000000002 C 68.598 9.712000000000002 68.99300000000001 10.665000000000003 68.656 11.500000000000002 L 66.438 16.844 L 66.875 17.125 C 69.983 19.239 72.636 21.892 74.75 25 L 75.031 25.438 L 80.375 23.218999999999998 C 80.784 23.058999999999997 81.234 23.058999999999997 81.625 23.218999999999998 C 82.016 23.378999999999998 82.34 23.685 82.5 24.093999999999998 L 85.594 31.468999999999998 C 85.949 32.285999999999994 85.53599999999999 33.257 84.719 33.593999999999994 L 79.375 35.812 L 79.469 36.312 C 80.17899999999999 40.006 80.17899999999999 43.742999999999995 79.469 47.437 L 79.375 47.937 L 84.719 50.156 C 85.53599999999999 50.493 85.931 51.446 85.594 52.281 L 82.5 59.656 C 82.34 60.047 82.047 60.371 81.656 60.531 C 81.247 60.690999999999995 80.81500000000001 60.690999999999995 80.406 60.531 L 75.063 58.313 L 74.781 58.75 C 72.65 61.876 69.983 64.511 66.875 66.625 L 66.469 66.906 L 68.687 72.281 C 68.847 72.69000000000001 68.847 73.14 68.687 73.531 C 68.527 73.92200000000001 68.221 74.24600000000001 67.812 74.406 L 60.406 77.46900000000001 C 59.589 77.80600000000001 58.65 77.429 58.312 76.59400000000001 L 56.094 71.25 L 55.594 71.313 C 55.061 71.42 54.703 71.523 54.187 71.59400000000001 L 54.156 72.81200000000001 C 54.528999999999996 72.75900000000001 54.921 72.69600000000001 55.312 72.62500000000001 L 57.125 77.06300000000002 C 57.409 77.75600000000001 57.977 78.29200000000002 58.687 78.59400000000002 C 59.041999999999994 78.73600000000002 59.407999999999994 78.81300000000002 59.781 78.81300000000002 C 60.153999999999996 78.81300000000002 60.519999999999996 78.73600000000002 60.875 78.59400000000002 L 68.281 75.53100000000002 C 68.992 75.247 69.528 74.71 69.813 74 C 70.11500000000001 73.307 70.11500000000001 72.523 69.812 71.812 L 67.969 67.375 C 70.88199999999999 65.315 73.40899999999999 62.806 75.469 59.875 L 79.90599999999999 61.688 C 80.59899999999999 61.972 81.383 61.972 82.094 61.688 C 82.78699999999999 61.404 83.323 60.867000000000004 83.625 60.156000000000006 L 86.719 52.75 C 87.323 51.294 86.613 49.604 85.156 49 L 80.75 47.188 C 81.354 43.671 81.354 40.111000000000004 80.75 36.594 L 85.156 34.75 C 86.61200000000001 34.146 87.322 32.488 86.71900000000001 31.031 L 83.625 23.625 C 83.341 22.915 82.804 22.347 82.094 22.062 C 81.401 21.76 80.61699999999999 21.76 79.90599999999999 22.062 L 75.469 23.906000000000002 C 73.40899999999999 20.993000000000002 70.89999999999999 18.466 67.969 16.406000000000002 L 69.812 11.969000000000001 C 70.416 10.513000000000002 69.737 8.823 68.28099999999999 8.219000000000001 L 60.87499999999999 5.219000000000001 C 60.181999999999995 4.935000000000001 59.397999999999996 4.935000000000001 58.68699999999999 5.219000000000001 C 57.99399999999999 5.503000000000001 57.45799999999999 6.0710000000000015 57.15599999999999 6.7810000000000015 L 55.313 11.188 C 51.796 10.584000000000001 48.236000000000004 10.584000000000001 44.719 11.187000000000001 L 42.875 6.781 C 42.431 5.698 41.405 5 40.25 5 z M 50 19.75 C 47.129 19.75 44.258 20.31 41.531 21.438 C 36.077999999999996 23.694 31.817999999999998 27.936 29.561999999999998 33.406 C 27.305999999999997 38.876999999999995 27.305999999999997 44.922 29.561999999999998 50.375 C 32.333 57.054 38.224999999999994 61.955 45.312 63.5 L 45.406 62.312 C 38.71 60.856 33.299 56.181 30.688 49.875 C 28.557 44.724000000000004 28.557 39.057 30.688 33.906 C 32.818999999999996 28.737 36.85 24.725 42 22.594 C 47.150999999999996 20.463 52.818 20.463 57.969 22.594 C 63.120000000000005 24.725 67.15 28.724 69.281 33.875 C 71.412 39.025999999999996 71.412 44.724000000000004 69.281 49.875 C 67.15 55.044 63.11900000000001 59.056 57.96900000000001 61.187 C 56.69000000000001 61.72 55.54200000000001 62.108 54.156000000000006 62.375 L 54.188 63.625 C 55.644000000000005 63.341 57.102000000000004 62.912 58.469 62.344 C 63.922000000000004 60.088 68.182 55.846000000000004 70.438 50.375 C 72.694 44.903999999999996 72.694 38.859 70.438 33.406 C 68.182 27.953 63.922 23.693 58.469 21.438 C 55.733 20.31 52.871 19.75 50 19.75 z M 49.969 26.188 C 46.328 26.188 43.375 29.171999999999997 43.375 32.813 L 43.375 46.406000000000006 L 43.375 58.656000000000006 C 43.375 60.077000000000005 44.517 61.21900000000001 45.938 61.21900000000001 L 54.031000000000006 61.21900000000001 C 55.452000000000005 61.21900000000001 56.611000000000004 60.077000000000005 56.59400000000001 58.656000000000006 L 56.59400000000001 38.156000000000006 L 56.59400000000001 32.813 C 56.59400000000001 29.172000000000004 53.61000000000001 26.188000000000002 49.96900000000001 26.188000000000002 z M 50 27.438 C 52.966 27.438 55.357 29.865 55.375 32.813 L 55.375 38.156000000000006 L 55.375 58.656000000000006 C 55.375 59.38400000000001 54.759 59.96900000000001 54.031 59.96900000000001 L 45.969 59.96900000000001 C 45.241 59.96900000000001 44.625 59.385000000000005 44.625 58.656000000000006 L 44.625 46.406000000000006 L 44.625 32.813 C 44.625 29.865000000000002 47.034 27.438000000000002 50 27.438000000000002 z M 47 31.468999999999998 C 46.005 31.468999999999998 45.187 32.269 45.187 33.281 L 45.187 57.188 C 45.188 58.182 45.988 59 47 59 C 48.012 59 48.83 58.169 48.813 57.156 L 48.813 33.281 C 48.813 32.286 48.013000000000005 31.468 47 31.468999999999998 z M 52.969 31.468999999999998 C 51.957 31.468999999999998 51.156 32.269 51.156 33.281 L 51.156 57.188 C 51.156 58.183 51.955999999999996 59.001000000000005 52.969 59 C 53.981 59 54.799 58.169 54.781 57.156 L 54.781 33.281 C 54.781 32.286 53.981 31.468 52.969 31.468999999999998 z M 47 32.719 C 47.32 32.719 47.58 32.962 47.563 33.281 L 47.563 57.156 C 47.563 57.458 47.302 57.75 47 57.75 C 46.698 57.75 46.406 57.476 46.406 57.156 L 46.406 33.281 C 46.406 32.979 46.68 32.717999999999996 47 32.719 z M 52.969 32.719 C 53.289 32.719 53.549 32.962 53.531 33.281 L 53.531 57.156 C 53.531 57.458 53.288 57.75 52.969 57.75 C 52.649 57.75 52.375 57.476 52.375 57.156 L 52.375 33.281 C 52.375 32.979 52.649 32.717999999999996 52.969 32.719 z M 47.25 62.75 L 47.281 78.563 C 47.281 80.286 45.772999999999996 84.316 45.188 85.71900000000001 L 45.094 85.906 L 47.438 95 L 52.125 95 L 54.438 85.906 L 54.375 85.719 C 53.789 84.298 52.25 80.285 52.25 78.563 L 52.281 62.75 L 51.031 62.75 L 51.031 78.562 C 51.031 80.658 52.716 85.023 53.125 86 L 51.156 93.75 L 48.406 93.75 L 46.406 86 C 46.797 85.005 48.531 80.658 48.531 78.562 L 48.5 62.75 L 47.25 62.75 z" stroke-linecap="round" />
</g>
		<g transform="matrix(3.13 0 0 3.13 0 0)"  >
<rect style="stroke: none; stroke-width: 1; stroke-dasharray: none; stroke-linecap: butt; stroke-dashoffset: 0; stroke-linejoin: miter; stroke-miterlimit: 4; fill: none; fill-rule: nonzero; opacity: 1;" vector-effect="non-scaling-stroke"  x="-160" y="-180" rx="0" ry="0" width="320" height="360" />
</g>
</g>
</g>
</svg>